<?xml version="1.0" encoding="UTF-8" standalone="no"?>
<!DOCTYPE svg PUBLIC "-//W3C//DTD SVG 1.1//EN" "http://www.w3.org/Graphics/SVG/1.1/DTD/svg11.dtd">
<svg version="1.1" xmlns="http://www.w3.org/2000/svg" xmlns:xlink="http://www.w3.org/1999/xlink" preserveAspectRatio="xMidYMid meet" viewBox="0 0 640 640" width="640" height="640"><defs><path d="M421.53 309.13C421.53 365.84 374.26 411.88 316.03 411.88C257.8 411.88 210.53 365.84 210.53 309.13C210.53 252.42 257.8 206.38 316.03 206.38C374.26 206.38 421.53 252.42 421.53 309.13Z" id="m2LPAAdfIE"></path><linearGradient id="gradientb7BLRWQBO" gradientUnits="userSpaceOnUse" x1="316.47" y1="115.55" x2="316.47" y2="411.88"><stop style="stop-color: #010000;stop-opacity: 1" offset="0%"></stop><stop style="stop-color: #ffffff;stop-opacity: 1" offset="100%"></stop></linearGradient><path d="M249.52 250.81C249.76 270.31 279.76 285.78 316.47 285.33C353.18 284.87 382.79 268.67 382.54 249.16C382.3 229.66 352.3 214.19 315.59 214.64C278.88 215.1 249.28 231.3 249.52 250.81Z" id="cTGVr4UYx"></path><radialGradient id="gradientc2YjOrH0pX" gradientUnits="userSpaceOnUse" cx="315.15" cy="315.56" r="85.36"><stop style="stop-color: #010000;stop-opacity: 1" offset="0%"></stop><stop style="stop-color: #b8b8b8;stop-opacity: 1" offset="72.13441751093083%"></stop><stop style="stop-color: #ffffff;stop-opacity: 1" offset="100%"></stop></radialGradient></defs><g><g><g><g><filter id="shadow12117148" x="189.53" y="185.38" width="254.01" height="260.5" filterUnits="userSpaceOnUse" primitiveUnits="userSpaceOnUse"><feFlood></feFlood><feComposite in2="SourceAlpha" operator="in"></feComposite><feGaussianBlur stdDeviation="1"></feGaussianBlur><feOffset dx="1" dy="13" result="afterOffset"></feOffset><feFlood flood-color="#000000" flood-opacity="0.5"></feFlood><feComposite in2="afterOffset" operator="in"></feComposite><feMorphology operator="dilate" radius="1"></feMorphology><feComposite in2="SourceAlpha" operator="out"></feComposite></filter><path d="M421.53 309.13C421.53 365.84 374.26 411.88 316.03 411.88C257.8 411.88 210.53 365.84 210.53 309.13C210.53 252.42 257.8 206.38 316.03 206.38C374.26 206.38 421.53 252.42 421.53 309.13Z" id="h4gJQbOIvG" fill="white" fill-opacity="1" filter="url(#shadow12117148)"></path></g><use xlink:href="#m2LPAAdfIE" opacity="1" fill="url(#gradientb7BLRWQBO)"></use><g><use xlink:href="#m2LPAAdfIE" opacity="1" fill-opacity="0" stroke="#161515" stroke-width="2" stroke-opacity="1"></use></g></g><g><use xlink:href="#cTGVr4UYx" opacity="1" fill="url(#gradientc2YjOrH0pX)"></use><g><use xlink:href="#cTGVr4UYx" opacity="1" fill-opacity="0" stroke="#141313" stroke-width="2" stroke-opacity="1"></use></g></g></g></g></svg>